<?xml version="1.0" encoding="UTF-8" standalone="no"?>
<svg
   xmlns:dc="http://purl.org/dc/elements/1.1/"
   xmlns:cc="http://creativecommons.org/ns#"
   xmlns:rdf="http://www.w3.org/1999/02/22-rdf-syntax-ns#"
   xmlns:svg="http://www.w3.org/2000/svg"
   xmlns="http://www.w3.org/2000/svg"
   xmlns:sodipodi="http://sodipodi.sourceforge.net/DTD/sodipodi-0.dtd"
   xmlns:inkscape="http://www.inkscape.org/namespaces/inkscape"
   width="1685pt"
   height="593pt"
   viewBox="0 0 1685 593"
   version="1.1"
   id="svg2"
   inkscape:version="0.48.5 r10040"
   sodipodi:docname="drcherzog-logo.svg"
   inkscape:export-filename="/home/lu/Downloads/drcherzog-logo.png"
   inkscape:export-xdpi="90"
   inkscape:export-ydpi="90">
  <metadata
     id="metadata12">
    <rdf:RDF>
      <cc:Work
         rdf:about="">
        <dc:format>image/svg+xml</dc:format>
        <dc:type
           rdf:resource="http://purl.org/dc/dcmitype/StillImage" />
        <dc:title></dc:title>
      </cc:Work>
    </rdf:RDF>
  </metadata>
  <defs
     id="defs10" />
  <sodipodi:namedview
     pagecolor="#ffffff"
     bordercolor="#666666"
     borderopacity="1"
     objecttolerance="10"
     gridtolerance="10"
     guidetolerance="10"
     inkscape:pageopacity="0"
     inkscape:pageshadow="2"
     inkscape:window-width="1301"
     inkscape:window-height="744"
     id="namedview8"
     showgrid="false"
     inkscape:zoom="0.41091926"
     inkscape:cx="940.83759"
     inkscape:cy="377.75106"
     inkscape:window-x="1431"
     inkscape:window-y="24"
     inkscape:window-maximized="1"
     inkscape:current-layer="svg2" />
  <path
     fill="#fefefe"
     d=" M 0.00 0.00 L 1685.00 0.00 L 1685.00 593.00 L 0.00 593.00 L 0.00 0.00 Z"
     id="path4"
     style="fill:none" />
  <path
     d=" M 1648.22 6.27 C 1652.36 3.83 1656.52 0.86 1661.52 0.67 C 1660.04 7.68 1654.12 12.47 1649.86 17.86 C 1625.56 43.98 1598.77 67.65 1571.76 90.90 C 1557.37 102.85 1543.40 115.29 1528.68 126.84 C 1452.76 187.07 1373.78 243.42 1292.28 295.84 C 1323.77 314.75 1354.74 334.54 1385.45 354.70 C 1435.95 387.97 1485.68 422.47 1533.43 459.61 C 1550.11 472.54 1566.22 486.18 1582.63 499.44 C 1612.46 524.10 1642.42 548.85 1669.02 577.05 C 1672.73 581.58 1677.57 585.82 1678.81 591.79 C 1674.14 591.82 1670.26 588.92 1666.31 586.86 C 1648.56 576.47 1631.68 564.69 1614.55 553.33 C 1597.32 541.71 1580.10 530.08 1562.81 518.53 C 1549.87 509.65 1536.36 501.65 1523.42 492.77 C 1455.62 447.84 1386.40 404.98 1315.13 365.76 C 1291.44 352.75 1267.65 339.90 1243.58 327.58 C 1241.63 326.27 1239.72 328.14 1238.01 328.95 C 1203.46 349.17 1168.63 368.94 1133.12 387.43 C 1038.08 437.07 939.27 479.80 837.15 512.66 C 799.84 524.70 762.05 535.26 723.90 544.33 C 680.35 554.48 636.36 563.04 591.91 568.06 C 524.62 575.54 456.46 575.35 389.25 567.14 C 324.13 558.93 259.35 543.43 199.78 515.36 C 136.84 486.75 77.81 448.98 27.06 401.91 C 23.37 398.29 18.83 395.41 16.22 390.82 C 10.00 380.70 3.98 370.13 1.28 358.47 C 0.74 353.38 -0.50 346.72 4.00 343.02 C 9.02 339.55 15.54 340.96 21.06 342.22 C 32.28 345.23 42.75 350.50 52.92 356.02 C 58.36 358.81 62.36 363.51 66.94 367.43 C 119.81 415.57 182.24 452.54 248.38 479.32 C 288.73 495.18 331.07 505.61 373.87 512.26 C 449.77 523.91 527.29 524.01 603.39 514.04 C 686.76 502.42 768.60 481.24 848.22 454.13 C 965.93 413.70 1079.05 360.52 1186.91 298.55 C 1091.50 248.93 991.82 207.32 888.95 175.86 C 805.92 150.61 720.59 132.23 634.08 124.45 C 558.80 116.86 482.47 120.63 408.11 134.52 C 365.82 142.48 324.12 153.87 283.91 169.27 C 248.54 182.69 214.93 200.30 182.49 219.67 C 148.20 240.38 115.56 263.86 85.33 290.16 C 75.98 298.20 67.14 306.80 58.01 315.09 C 54.28 318.65 49.57 320.86 45.18 323.47 C 36.21 328.43 26.86 333.16 16.70 335.07 C 12.56 335.68 7.60 335.88 4.41 332.69 C 1.29 329.53 1.35 324.68 1.85 320.58 C 3.56 310.04 8.18 300.29 12.74 290.73 C 15.80 284.19 20.02 278.15 25.76 273.71 C 72.37 228.93 125.29 190.90 181.85 159.70 C 198.58 150.60 215.40 141.63 232.80 133.86 C 304.92 101.63 382.57 82.90 460.88 73.83 C 503.71 69.11 546.89 67.26 589.96 68.99 C 624.48 70.24 658.85 74.14 693.08 78.73 C 782.23 91.25 869.83 113.53 955.03 142.43 C 1048.57 174.30 1139.34 214.12 1226.66 260.34 C 1231.46 262.68 1235.96 265.61 1240.85 267.75 C 1256.11 259.66 1270.91 250.66 1285.85 241.98 C 1357.56 199.65 1428.50 155.96 1497.77 109.73 C 1533.15 85.95 1567.77 61.08 1602.81 36.81 C 1617.83 26.47 1632.69 15.87 1648.22 6.27 Z"
     id="path6"
     fill="#050505"
     style="fill:#ffffff" />
  <path
     sodipodi:type="arc"
     style="fill:#ffffff;fill-opacity:1;stroke:none"
     id="path2989"
     sodipodi:cx="640.99518"
     sodipodi:cy="413.43903"
     sodipodi:rx="240.05055"
     sodipodi:ry="236.60896"
     d="m 881.04573,413.43903 a 240.05055,236.60896 0 1 1 -480.1011,0 240.05055,236.60896 0 1 1 480.1011,0 z"
     transform="matrix(0.8,0,0,0.8,-25.309108,-3.8937089)" />
</svg>
